<svg xmlns="http://www.w3.org/2000/svg" viewBox="0 0 160 160"><rect width="160" height="160" rx="28" fill="#fff5df"/><circle cx="80" cy="80" r="67" fill="none" stroke="#dfb87c" stroke-width="1.5"/><g fill="none" stroke="#99410c" stroke-width="4.5" stroke-linecap="round" stroke-linejoin="round"><path d="M80 110Q44 105 37 78Q64 76 80 99Q95 76 123 78Q116 105 80 110ZM80 101Q58 80 80 53Q102 80 80 101Z"/><path d="M80 128v-15M80 51V24M80 44Q56 43 57 25l8 8M80 44Q104 43 103 25l-8 8M74 30l6-12 6 12M36 107l9 8M124 107l-9 8"/></g></svg>